<svg width="28" height="28" viewBox="0 0 28 28" fill="none" xmlns="http://www.w3.org/2000/svg">
<path d="M23.7298 10.8733L7.39647 2.70661C6.75187 2.38579 6.02402 2.27158 5.31214 2.37954C4.60026 2.4875 3.939 2.81239 3.41852 3.30991C2.89804 3.80743 2.54366 4.45337 2.40371 5.15966C2.26376 5.86594 2.34504 6.59821 2.63647 7.25661L5.43647 13.5216C5.5 13.6731 5.53272 13.8357 5.53272 13.9999C5.53272 14.1642 5.5 14.3268 5.43647 14.4783L2.63647 20.7433C2.39928 21.2761 2.29902 21.8598 2.34477 22.4412C2.39053 23.0226 2.58087 23.5834 2.89848 24.0726C3.21609 24.5618 3.65091 24.9638 4.16343 25.2422C4.67594 25.5206 5.2499 25.6665 5.83313 25.6666C6.3794 25.6612 6.91754 25.5336 7.40813 25.2933L23.7415 17.1266C24.3208 16.8352 24.8078 16.3885 25.1481 15.8364C25.4884 15.2843 25.6686 14.6485 25.6686 13.9999C25.6686 13.3514 25.4884 12.7156 25.1481 12.1635C24.8078 11.6114 24.3208 11.1647 23.7415 10.8733H23.7298ZM22.6915 15.0383L6.35813 23.2049C6.14366 23.3079 5.90282 23.3429 5.66792 23.3051C5.43302 23.2673 5.21528 23.1586 5.0439 22.9936C4.87252 22.8286 4.75569 22.6151 4.70909 22.3818C4.66248 22.1485 4.68832 21.9065 4.78313 21.6883L7.57147 15.4233C7.60756 15.3396 7.63873 15.2539 7.6648 15.1666H15.7031C16.0126 15.1666 16.3093 15.0437 16.5281 14.8249C16.7469 14.6061 16.8698 14.3094 16.8698 13.9999C16.8698 13.6905 16.7469 13.3938 16.5281 13.175C16.3093 12.9562 16.0126 12.8333 15.7031 12.8333H7.6648C7.63873 12.746 7.60756 12.6603 7.57147 12.5766L4.78313 6.31161C4.68832 6.0934 4.66248 5.85142 4.70909 5.61811C4.75569 5.3848 4.87252 5.17132 5.0439 5.00629C5.21528 4.84125 5.43302 4.73256 5.66792 4.69479C5.90282 4.65702 6.14366 4.69196 6.35813 4.79495L22.6915 12.9616C22.8826 13.0595 23.0429 13.2083 23.1549 13.3915C23.2669 13.5747 23.3262 13.7852 23.3262 13.9999C23.3262 14.2147 23.2669 14.4252 23.1549 14.6084C23.0429 14.7916 22.8826 14.9404 22.6915 15.0383Z" fill="#313131"/>
</svg>
